<?xml version="1.0" standalone="no"?>
<!DOCTYPE svg PUBLIC "-//W3C//DTD SVG 20010904//EN"
 "http://www.w3.org/TR/2001/REC-SVG-20010904/DTD/svg10.dtd">
<svg version="1.0" xmlns="http://www.w3.org/2000/svg"
 width="326.000000pt" height="111.000000pt" viewBox="0 0 326.000000 111.000000"
 preserveAspectRatio="xMidYMid meet">

<g transform="translate(0.000000,111.000000) scale(0.100000,-0.100000)"
fill="#000000" stroke="none">
<path d="M631 994 c-123 -33 -224 -116 -283 -233 -32 -63 -33 -71 -33 -181 0
-99 3 -122 23 -165 93 -201 300 -303 507 -250 123 32 221 115 279 235 29 61
31 72 31 180 0 110 -1 118 -33 183 -92 186 -298 283 -491 231z m327 -196 c15
-15 17 -310 2 -339 -9 -16 -22 -19 -83 -19 -77 0 -106 -12 -86 -37 7 -7 22
-13 35 -13 17 0 24 -6 24 -20 0 -19 -7 -20 -115 -20 -108 0 -115 1 -115 20 0
14 7 20 23 20 28 0 47 17 40 36 -4 10 -25 14 -78 14 -106 0 -105 -1 -105 181
0 85 5 159 10 170 10 18 23 19 223 19 152 0 216 -3 225 -12z"/>
<path d="M561 756 c-8 -9 -11 -55 -9 -137 l3 -124 180 0 180 0 3 129 c2 97 -1
131 -10 138 -7 4 -86 8 -174 8 -126 0 -164 -3 -173 -14z"/>
<path d="M1603 313 c-8 -3 -13 -23 -13 -49 0 -44 1 -45 28 -42 24 3 27 8 30
44 3 42 -12 58 -45 47z m27 -23 c0 -5 -4 -10 -10 -10 -5 0 -10 5 -10 10 0 6 5
10 10 10 6 0 10 -4 10 -10z m0 -40 c0 -5 -4 -10 -10 -10 -5 0 -10 5 -10 10 0
6 5 10 10 10 6 0 10 -4 10 -10z"/>
<path d="M1992 308 c-7 -7 -12 -24 -12 -38 0 -48 49 -69 70 -31 14 27 13 47
-6 65 -19 19 -36 20 -52 4z m41 -27 c6 -24 -7 -46 -22 -37 -12 8 -15 39 -4 49
11 12 21 8 26 -12z"/>
<path d="M2140 270 c0 -48 14 -68 23 -32 4 16 5 16 6 0 1 -21 27 -24 34 -5 4
10 6 10 6 0 1 -7 6 -13 11 -13 6 0 10 20 10 45 0 50 -19 61 -38 23 -8 -18 -11
-19 -11 -6 -1 10 -10 22 -21 28 -19 10 -20 8 -20 -40z"/>
<path d="M2466 308 c-4 -9 -6 -31 -4 -50 3 -29 6 -33 33 -33 28 0 30 3 33 43
2 25 -1 42 -7 42 -6 0 -11 -16 -11 -36 0 -49 -23 -40 -31 12 -4 28 -7 34 -13
22z"/>
<path d="M2625 309 c-17 -6 -17 -8 -2 -8 13 -1 17 -10 17 -41 0 -22 5 -40 10
-40 6 0 10 18 10 39 0 22 5 41 12 43 7 3 4 7 -7 10 -11 3 -29 1 -40 -3z"/>
<path d="M2760 269 c0 -48 1 -49 30 -49 17 0 30 5 30 10 0 6 -9 10 -20 10 -11
0 -20 5 -20 10 0 6 7 10 15 10 8 0 15 5 15 10 0 6 -7 10 -15 10 -8 0 -15 5
-15 10 0 6 10 10 22 10 28 0 17 11 -16 14 -25 3 -26 1 -26 -45z"/>
<path d="M2900 269 c0 -27 5 -49 10 -49 6 0 10 8 10 18 1 16 1 16 14 0 7 -10
16 -18 20 -18 4 0 6 8 5 18 -1 9 1 25 6 35 10 23 -4 38 -39 41 -25 3 -26 1
-26 -45z m40 16 c0 -8 -4 -15 -10 -15 -5 0 -10 7 -10 15 0 8 5 15 10 15 6 0
10 -7 10 -15z"/>
<path d="M1300 265 c0 -43 1 -45 30 -45 17 0 30 5 30 10 0 6 -9 10 -20 10 -16
0 -20 7 -20 35 0 19 -4 35 -10 35 -5 0 -10 -20 -10 -45z"/>
<path d="M1442 268 c-13 -49 -9 -57 14 -37 13 11 18 11 21 2 3 -7 10 -13 17
-13 10 0 11 10 3 45 -14 60 -40 62 -55 3z"/>
<path d="M1830 265 c0 -25 5 -45 10 -45 6 0 10 7 10 15 0 20 10 19 26 -2 17
-24 29 -10 14 17 -6 11 -8 30 -5 40 7 22 -5 26 -23 8 -9 -9 -12 -9 -12 0 0 7
-4 12 -10 12 -5 0 -10 -20 -10 -45z"/>
<path d="M2310 265 c0 -33 4 -45 15 -45 8 0 15 9 15 20 0 13 7 20 20 20 15 0
20 7 20 25 0 22 -4 25 -35 25 -35 0 -35 0 -35 -45z m50 20 c0 -8 -4 -15 -10
-15 -5 0 -10 7 -10 15 0 8 5 15 10 15 6 0 10 -7 10 -15z"/>
</g>
</svg>
